<svg enable-background="new 0 0 100 100" viewBox="0 0 100 100" xmlns="http://www.w3.org/2000/svg"><path d="m57.3 54.6c0 4-3.3 7.3-7.3 7.3s-7.3-3.3-7.3-7.3 3.3-7.3 7.3-7.3 7.3 3.2 7.3 7.3zm21.7-2.5c0 .1-.1.2-.1.2-.6.8-12.5 20.2-28.9 20.2s-28.3-19.4-28.8-20.2c0-.1-.1-.2-.1-.2-.1-.2-2-4.6.2-9.9 1.9-4.7 6.3-8.4 13-11.1 4.5-1.8 8.8-3.3 15.7-3.6h.1c6.9.3 11.2 1.8 15.7 3.6 6.7 2.7 11.1 6.5 13 11.1 2.1 5.3.2 9.7.2 9.9zm-7.7 3.7-4.5-2.4c-.7.4-1.5.5-2.3.5-2.9 0-5.3-2.4-5.3-5.3s2.4-5.3 5.3-5.3c2.8 0 5 2.1 5.2 4.8l5.2 2.8c.2-.2.3-.4.3-.5.2-.6 1.1-3.4-.3-6.7-1.5-3.6-5.1-6.6-10.8-8.9-4.1-1.7-8.1-3.1-14.3-3.3-6.2.2-10 1.6-14.3 3.3-5.7 2.3-9.3 5.3-10.8 8.9-1.4 3.3-.5 6.1-.3 6.7.1.1.2.3.3.5l5.2-2.8c.2-2.7 2.5-4.8 5.2-4.8 2.9 0 5.3 2.4 5.3 5.3s-2.4 5.3-5.3 5.3c-.8 0-1.6-.2-2.3-.5l-4.5 2.4c4.9 5.3 12.7 12.7 21.7 12.7s16.8-7.4 21.3-12.7z" fill="#ddc3a6"/></svg>